<svg version="1.1" id="Layer_1" xmlns="http://www.w3.org/2000/svg" xmlns:xlink="http://www.w3.org/1999/xlink" x="0px" y="0px"
	 width="100%" viewBox="0 0 544 1024" enable-background="new 0 0 544 1024" xml:space="preserve">
<path fill="#000000" opacity="1.000000" stroke="none" 
	d="
M389.468658,1025.000000 
	C387.071960,1022.926208 384.326843,1023.382446 381.961151,1022.925476 
	C342.895660,1015.378723 313.762360,993.648132 292.065643,960.852600 
	C278.334656,940.097717 266.707458,918.171448 255.596985,896.000061 
	C243.998230,872.854065 229.550964,851.760315 212.040115,832.882690 
	C167.972961,785.375977 130.111954,733.395386 98.574287,676.842468 
	C84.205315,651.076233 72.478065,623.996155 60.783989,596.936096 
	C43.656277,557.302673 28.654915,516.859314 17.937382,475.025208 
	C9.807432,443.291351 3.494271,411.126312 2.563040,378.169159 
	C2.399175,372.369812 1.638705,366.587341 1.076878,360.398529 
	C1.000000,340.979095 1.000000,321.958221 1.085626,302.090302 
	C2.254731,293.347870 3.075462,285.405762 4.468411,277.565338 
	C9.730319,247.947922 18.904957,219.460434 30.193151,191.656967 
	C40.030342,167.427399 51.197666,143.773254 62.403263,120.153748 
	C75.035545,93.527039 89.816269,68.400772 112.505478,48.724445 
	C135.705353,28.605247 162.139664,14.838011 191.662125,6.692563 
	C201.312424,4.029980 211.332047,3.461019 221.000000,1.000000 
	C238.354233,1.000000 255.708450,1.000000 273.823853,1.234927 
	C278.444489,3.451088 282.740723,2.672809 286.811523,3.347933 
	C320.331451,8.907077 351.674194,20.534864 381.311646,36.949192 
	C422.707367,59.875710 458.071198,89.549675 484.230042,129.432587 
	C505.183899,161.379745 518.060852,196.236877 522.463684,234.281540 
	C524.160828,248.946640 525.307190,263.761597 529.149048,278.083618 
	C531.667358,287.471283 537.127747,295.151001 545.000000,301.000000 
	C545.000000,302.066681 545.000000,303.133331 545.000000,304.600006 
	C541.240540,305.645660 538.575317,303.760712 536.328735,301.113434 
	C532.442627,296.534210 528.903137,291.702454 525.922913,286.469666 
	C525.140625,285.096191 524.962952,283.195404 522.637695,282.601288 
	C519.159607,287.066956 520.122620,292.690918 519.581360,297.660950 
	C516.778931,323.395416 509.458130,347.843262 499.358551,371.506500 
	C489.655670,394.240295 478.009644,415.920929 462.916016,435.628113 
	C455.207916,445.692322 446.761108,455.108124 438.226562,464.458679 
	C436.552643,466.292664 434.925690,468.221649 433.600281,470.311737 
	C429.600708,476.618805 430.156738,481.370972 435.690063,486.282745 
	C438.915833,489.146149 442.484894,491.636047 445.988953,494.170349 
	C459.561554,503.986877 465.698151,517.405212 466.197601,533.983337 
	C466.715332,551.168518 463.183014,567.687744 459.301758,584.232666 
	C455.406738,600.836121 456.746490,617.155334 462.073883,633.351746 
	C467.119995,648.693115 473.908081,663.444702 477.909119,679.112305 
	C481.625702,693.665955 484.069336,708.340698 480.476288,723.456482 
	C474.611206,748.130310 450.629456,757.065552 430.291443,741.800537 
	C419.342896,733.582825 411.638306,722.405457 403.551819,711.603699 
	C397.862915,704.004639 392.629150,696.038818 386.107117,689.099976 
	C370.062073,672.029480 349.211334,664.393311 326.991425,660.183105 
	C308.117889,656.606873 289.617584,652.307190 272.065186,644.186218 
	C247.221573,632.691711 229.804718,614.116333 217.629669,589.912476 
	C207.129379,569.038086 199.980865,547.158386 196.674576,524.089905 
	C193.790024,503.964111 192.575104,483.653473 193.816620,463.361572 
	C195.116776,442.111084 197.701004,421.036194 205.757721,400.955322 
	C220.323410,364.651184 244.803131,338.702271 282.306458,325.843475 
	C299.751770,319.862030 317.574677,316.716827 336.076660,316.338745 
	C356.220978,315.927155 376.331085,316.111237 396.448853,316.932709 
	C414.303192,317.661713 419.434204,311.362976 422.495697,294.812225 
	C424.640137,283.219421 425.192657,271.411530 423.677643,259.579773 
	C422.805481,252.768433 416.680389,247.560150 410.348419,249.558899 
	C390.575470,255.800323 370.010376,257.749054 349.727844,261.198547 
	C327.621246,264.958282 305.480713,268.534973 283.310028,271.894867 
	C272.429535,273.543762 261.447754,274.244232 250.602478,271.300751 
	C238.658234,268.058960 232.468185,259.082672 233.316772,246.675964 
	C235.782776,210.621780 251.834534,180.823029 275.679535,154.648560 
	C281.967896,147.745865 288.990448,141.582520 296.418976,135.907761 
	C300.137939,133.066803 304.002106,130.522354 308.646362,129.336716 
	C311.427368,128.626755 314.261261,128.345200 315.797089,131.040405 
	C317.436279,133.916946 315.234375,136.109039 313.186218,137.873260 
	C306.099670,143.977295 297.992371,148.682968 290.512421,154.247253 
	C265.113770,173.141098 249.095352,198.500397 240.082047,228.483658 
	C238.322418,234.337158 237.791412,240.580429 238.059174,246.788818 
	C238.616989,259.722931 245.207703,266.191559 258.193878,266.648865 
	C270.295837,267.075073 281.963409,264.482819 293.600800,261.671783 
	C324.176575,254.285995 355.249695,249.615097 386.271790,244.666626 
	C395.841614,243.140121 404.947968,240.737869 410.602386,231.849228 
	C415.626465,223.951462 414.558563,215.340820 412.306854,207.142731 
	C406.168243,184.793320 394.714539,165.178665 379.878662,147.491516 
	C377.042694,144.110519 373.220917,141.977112 369.246887,140.188797 
	C359.944489,136.002655 353.622528,128.849289 347.898956,120.562508 
	C335.463531,102.558167 319.564880,89.155952 296.769470,86.724442 
	C287.285309,85.712807 279.869385,90.536140 273.147644,96.652145 
	C230.941422,135.054855 197.596298,179.766266 175.118362,232.484924 
	C161.638504,264.099915 149.689316,296.171326 141.975098,329.706390 
	C135.356293,358.479553 133.841217,387.790680 135.592987,417.059601 
	C138.322693,462.668213 145.591141,507.554413 161.366928,550.761780 
	C173.252853,583.315369 186.114441,615.446716 200.990463,646.756836 
	C202.333847,649.584290 204.039276,652.396057 201.820053,655.549011 
	C199.498154,655.793762 198.895050,654.066895 198.177582,652.639282 
	C179.697113,615.865845 161.983963,578.752441 149.270355,539.493408 
	C139.571609,509.544189 132.082062,479.018646 128.041992,447.802643 
	C124.722588,422.154877 124.944374,396.324707 126.684723,370.509460 
	C128.624451,341.736725 133.380981,313.420227 140.774750,285.598877 
	C147.449097,260.484528 159.417892,237.577484 171.548889,214.738892 
	C188.218216,183.356216 208.424683,154.542175 232.568375,128.506042 
	C243.093063,117.156395 253.955719,106.134735 265.951294,96.274193 
	C269.876587,93.047539 274.836823,89.598907 273.416351,83.676430 
	C272.100067,78.188400 266.399811,77.328766 261.779053,76.467361 
	C231.948944,70.906372 204.432281,76.419456 180.473785,95.443207 
	C169.925934,103.818489 165.461777,116.387901 161.433670,128.860641 
	C157.072723,142.364014 155.130066,156.386398 152.454239,170.257202 
	C147.416092,196.373825 134.163101,218.193771 116.987030,238.026642 
	C108.933517,247.325867 99.405006,255.292343 92.736809,265.861542 
	C83.111313,281.118073 78.743446,298.128296 75.420364,315.507538 
	C73.486252,325.622681 72.426376,335.895111 72.409615,346.188202 
	C72.375420,367.187744 75.423470,387.877777 79.255989,408.478180 
	C85.131729,440.061340 92.644608,471.246124 102.179726,501.917297 
	C115.763184,545.610535 134.944672,587.021973 154.220123,628.386169 
	C168.180008,658.343384 183.302322,687.630920 204.709366,713.114868 
	C221.522934,733.130493 238.689545,752.849304 255.645355,772.745972 
	C258.125336,775.656067 260.432709,778.736084 262.568634,781.906677 
	C263.593719,783.428345 265.437836,785.602661 263.092773,787.134338 
	C260.813293,788.623169 259.495331,786.137268 258.414185,784.627808 
	C250.736649,773.908630 242.509476,763.685120 233.038574,754.456482 
	C223.731995,745.387939 214.493790,736.233948 205.563202,726.797974 
	C188.871078,709.161194 175.548523,689.058899 163.611008,668.008545 
	C144.765778,634.777344 128.107941,600.473083 114.526237,564.764160 
	C98.647453,523.015869 86.156509,480.198303 76.480209,436.609619 
	C71.982452,416.348633 67.186249,396.110077 64.392464,375.503998 
	C60.080952,343.703613 60.567692,312.223419 70.460564,281.287415 
	C75.232216,266.365936 83.595528,253.811935 93.779045,242.128204 
	C102.102058,232.579025 112.389694,224.856049 119.752197,214.505127 
	C128.920883,201.614899 134.047195,187.047058 134.606873,171.226852 
	C135.300385,151.623001 136.488937,132.151428 146.667511,114.712860 
	C162.554062,87.495071 185.969376,68.995285 216.928802,64.081284 
	C269.571167,55.725666 317.579193,68.124435 359.402191,102.292213 
	C399.975342,135.438889 424.169098,178.350021 436.350464,228.746948 
	C443.927673,260.095520 441.894928,290.880066 433.635376,321.870697 
	C423.331024,360.533691 402.050171,392.364624 375.169067,421.072449 
	C360.725189,436.497894 347.227997,452.906342 329.087128,464.428528 
	C312.438690,475.002838 294.871735,483.705688 276.542969,490.934235 
	C269.846985,493.574982 263.383942,496.680359 258.382812,502.081604 
	C253.319565,507.549988 252.270203,513.760071 255.600891,518.798950 
	C258.219574,522.760742 262.610016,523.681641 266.789917,524.694031 
	C280.007843,527.895691 293.353851,526.964111 306.439850,524.453613 
	C371.033722,512.061279 423.248901,479.633850 460.839294,425.509064 
	C486.340393,388.791199 502.279480,347.572144 509.277924,303.468140 
	C516.730286,256.503815 509.207367,211.419205 488.676056,168.351837 
	C468.978088,127.032684 440.680389,93.505714 402.398071,68.232033 
	C375.153381,50.245323 346.626770,34.987793 315.642731,24.559071 
	C289.767181,15.849781 263.090515,12.481739 235.928680,14.509359 
	C208.079849,16.588261 182.653564,26.168993 158.368851,39.960220 
	C115.799316,64.135361 87.944801,100.889168 67.648369,144.071075 
	C50.636600,180.264664 37.182228,217.901367 25.727333,256.213562 
	C20.794804,272.710968 18.728559,289.756287 18.342356,306.932495 
	C17.626396,338.774414 20.395174,370.456543 23.233200,402.130219 
	C28.299517,458.672729 44.322906,512.309143 65.868401,564.533447 
	C78.829292,595.949463 92.326546,627.122986 107.349472,657.607300 
	C120.704872,684.707886 137.068863,710.036377 153.798996,735.139648 
	C174.876343,766.765930 198.022171,796.879761 220.916336,827.173889 
	C236.529831,847.834106 249.168808,870.374939 262.879456,892.243530 
	C275.969177,913.121826 288.264984,934.526855 302.737366,954.500366 
	C324.125641,984.018860 352.933624,1001.475281 389.105316,1006.863647 
	C413.852692,1010.550110 436.810791,1006.461548 457.605560,992.184326 
	C469.902557,983.741638 479.268829,972.502930 487.128571,959.991028 
	C504.871368,931.746155 516.174805,901.027466 522.844299,868.387024 
	C527.579285,845.214172 534.533264,822.613464 543.181702,800.568298 
	C543.478394,799.812134 544.016968,799.150940 544.721436,798.222778 
	C545.000000,802.689270 545.000000,807.378479 544.801025,812.833862 
	C538.369629,836.510010 533.993469,859.850891 528.555176,882.946655 
	C522.040894,910.611877 516.299927,938.489319 503.066650,964.007080 
	C491.110992,987.061035 474.504028,1005.462708 450.539795,1016.683289 
	C442.310822,1020.536316 433.550842,1022.354004 425.000000,1025.000000 
	C413.312439,1025.000000 401.624878,1025.000000 389.468658,1025.000000 
M318.432983,639.695618 
	C328.224335,641.455139 338.453094,641.331970 347.743896,645.223511 
	C373.333130,655.941833 392.997406,673.531128 406.489197,697.779114 
	C412.406189,708.413391 417.905792,719.299438 426.166016,728.363098 
	C431.852692,734.602844 438.452057,738.926208 447.671753,737.089905 
	C465.991760,733.441162 476.021942,713.301514 470.733551,694.502686 
	C466.683228,680.104736 457.222046,669.394531 446.209320,659.987671 
	C426.464417,643.122070 421.499969,614.977051 434.324341,592.530212 
	C442.493866,578.230835 450.763184,563.970093 454.219971,547.505859 
	C458.083618,529.104065 449.194031,512.126770 431.364624,506.195618 
	C416.120880,501.124603 401.162476,503.080872 386.779816,510.041260 
	C374.180725,516.138611 361.105652,521.070374 347.757812,525.201050 
	C330.879669,530.424194 313.556244,533.699646 295.952423,535.045898 
	C283.731567,535.980530 271.661743,534.532410 260.318237,529.484863 
	C247.376633,523.726257 243.874359,510.304108 252.143478,498.882568 
	C255.362457,494.436371 259.544586,491.182770 264.660400,489.296692 
	C272.652527,486.350220 280.319519,482.765808 287.734283,478.575653 
	C305.447296,468.565857 323.225769,458.476410 337.803009,444.130646 
	C356.502075,425.728577 371.949677,404.594299 386.154846,382.578583 
	C392.413788,372.878235 397.475433,362.601379 400.120209,351.275909 
	C401.255615,346.414001 399.707581,344.115295 394.794128,343.165344 
	C380.421082,340.386536 365.888336,339.189117 351.306213,337.982178 
	C335.742767,336.694031 320.223846,337.116302 305.086670,339.804993 
	C270.187866,346.003876 244.357849,366.043884 226.557602,396.200226 
	C212.206787,420.512726 205.157455,447.310822 203.363388,475.380249 
	C202.399094,490.467041 202.037872,505.624634 204.398865,520.684021 
	C208.141663,544.557251 214.823502,567.457092 227.726868,588.097351 
	C239.331238,606.659790 254.038528,622.109680 274.772552,630.541321 
	C288.429993,636.095276 302.975098,638.037842 318.432983,639.695618 
z"/>
</svg>